<svg width="176" height="176" viewBox="0 0 176 176" fill="none" xmlns="http://www.w3.org/2000/svg">
<g id="CreativityB">
<path id="Vector" opacity="0.9" d="M103 15.5C103 24.0604 96.0604 31 87.5 31C78.9396 31 72 24.0604 72 15.5C72 6.93959 78.9396 0 87.5 0C96.0604 0 103 6.93959 103 15.5Z" fill="#6E4221"/>
<path id="Vector_2" opacity="0.9" d="M176 87.5C176 96.0604 169.06 103 160.5 103C151.94 103 145 96.0604 145 87.5C145 78.9396 151.94 72 160.5 72C169.06 72 176 78.9396 176 87.5Z" fill="#6E4221"/>
<path id="Vector_3" opacity="0.9" d="M150.579 149.872C144.526 155.925 134.712 155.925 128.659 149.872C122.605 143.819 122.605 134.005 128.659 127.951C134.712 121.898 144.526 121.898 150.579 127.951C156.632 134.005 156.632 143.819 150.579 149.872Z" fill="#6E4221"/>
<path id="Vector_4" opacity="0.9" d="M103 160.5C103 169.06 96.0604 176 87.5 176C78.9396 176 72 169.06 72 160.5C72 151.94 78.9396 145 87.5 145C96.0604 145 103 151.94 103 160.5Z" fill="#6E4221"/>
<path id="Vector_5" opacity="0.9" d="M47.3414 149.872C41.2883 155.925 31.4742 155.925 25.4211 149.872C19.3679 143.819 19.3679 134.005 25.4211 127.951C31.4742 121.898 41.2883 121.898 47.3414 127.951C53.3945 134.005 53.3945 143.819 47.3414 149.872Z" fill="#6E4221"/>
<path id="Vector_6" opacity="0.9" d="M31 87.5C31 96.0604 24.0604 103 15.5 103C6.93959 103 0 96.0604 0 87.5C0 78.9396 6.93959 72 15.5 72C24.0604 72 31 78.9396 31 87.5Z" fill="#6E4221"/>
<path id="Vector_7" opacity="0.9" d="M48.0485 47.3413C41.9954 53.3944 32.1813 53.3944 26.1282 47.3413C20.0751 41.2881 20.0751 31.4741 26.1282 25.4209C32.1813 19.3678 41.9954 19.3678 48.0485 25.4209C54.1017 31.4741 54.1017 41.2881 48.0485 47.3413Z" fill="#6E4221"/>
<path id="Special" d="M130.534 44.4255L142.105 1.24121L150.009 9.14448L173.718 32.8543L130.534 44.4255Z" fill="#758970"/>
</g>
</svg>
