<svg width="176" height="176" viewBox="0 0 176 176" fill="none" xmlns="http://www.w3.org/2000/svg">
<g id="Creativity">
<path id="Vector" d="M101.807 21.267C101.807 29.1465 95.4193 35.5341 87.5398 35.5341C79.6603 35.5341 73.2727 29.1465 73.2727 21.267C73.2727 13.3876 79.6603 7 87.5398 7C95.4193 7 101.807 13.3876 101.807 21.267Z" fill="#6E4221"/>
<path id="Vector_2" d="M169 87.5398C169 95.4193 162.612 101.807 154.733 101.807C146.853 101.807 140.466 95.4193 140.466 87.5398C140.466 79.6603 146.853 73.2727 154.733 73.2727C162.612 73.2727 169 79.6603 169 87.5398Z" fill="#6E4221"/>
<path id="Vector_3" d="M145.601 144.95C140.029 150.522 130.996 150.522 125.424 144.95C119.853 139.379 119.853 130.345 125.424 124.774C130.996 119.202 140.029 119.202 145.601 124.774C151.173 130.345 151.173 139.379 145.601 144.95Z" fill="#6E4221"/>
<path id="Vector_4" d="M101.807 154.733C101.807 162.612 95.4193 169 87.5398 169C79.6603 169 73.2727 162.612 73.2727 154.733C73.2727 146.853 79.6603 140.466 87.5398 140.466C95.4193 140.466 101.807 146.853 101.807 154.733Z" fill="#6E4221"/>
<path id="Vector_5" d="M50.5756 144.95C45.004 150.522 35.9706 150.522 30.3989 144.95C24.8273 139.379 24.8273 130.345 30.3989 124.774C35.9706 119.202 45.004 119.202 50.5756 124.774C56.1472 130.345 56.1472 139.379 50.5756 144.95Z" fill="#6E4221"/>
<path id="Vector_6" d="M35.5341 87.5398C35.5341 95.4193 29.1465 101.807 21.267 101.807C13.3876 101.807 7 95.4193 7 87.5398C7 79.6603 13.3876 73.2727 21.267 73.2727C29.1465 73.2727 35.5341 79.6603 35.5341 87.5398Z" fill="#6E4221"/>
<path id="Vector_7" d="M51.2265 50.5755C45.6549 56.1471 36.6215 56.1471 31.0498 50.5755C25.4782 45.0038 25.4782 35.9705 31.0498 30.3988C36.6215 24.8272 45.6549 24.8272 51.2265 30.3988C56.7981 35.9705 56.7981 45.0038 51.2265 50.5755Z" fill="#6E4221"/>
<path id="SpecialO" d="M120.5 40.5C120.5 32.6217 126.887 26.235 134.765 26.235C142.643 26.235 149.03 32.6217 149.03 40.5C149.03 48.3783 142.643 54.765 134.765 54.765C126.887 54.765 120.5 48.3783 120.5 40.5Z" fill="#6E4221"/>
<path id="Triangle" d="M151.999 3.00113C153.428 3.12023 158.769 12.069 163.84 21.4212C168.71 30.4031 173.331 39.7571 173.997 42.0189C174.385 43.3343 129.995 43.6262 130 42.0189C130.01 39.1545 149.197 2.76764 151.999 3.00113Z" fill="#687D61"/>
</g>
</svg>
