<svg width="177" height="177" viewBox="0 0 177 177" fill="none" xmlns="http://www.w3.org/2000/svg">
<g id="Frame 115">
<path id="Vector" d="M64.8119 64.8119L35.3084 57.2287C38.1268 54.4021 41.9501 52.5965 46.0763 52.1948L29.2257 35.3443L35.2357 29.3343L52.154 46.2526C52.5163 42.0526 54.3557 38.1733 57.2287 35.3084L64.8119 64.8119Z" fill="#A8947F"/>
<path id="Vector_2" d="M55 88.5L28.7757 104C28.7699 100.008 30.1967 96.0282 32.8303 92.8264L9.00001 92.8265L9.00001 84.3271L32.9261 84.3271C30.2124 81.101 28.77 77.0573 28.7757 73L55 88.5Z" fill="#A8947F"/>
<path id="Vector_3" d="M64.812 112.188L57.2287 141.692C54.4022 138.873 52.5966 135.05 52.1949 130.924L35.3443 147.774L29.3344 141.764L46.2527 124.846C42.0526 124.484 38.1733 122.644 35.3084 119.771L64.812 112.188Z" fill="#A8947F"/>
<path id="Vector_4" d="M88.5 122L104 148.224C100.008 148.23 96.0282 146.803 92.8264 144.17L92.8265 168H84.3271V144.074C81.101 146.788 77.0573 148.23 73 148.224L88.5 122Z" fill="#A8947F"/>
<path id="Vector_5" d="M112.188 112.188L141.692 119.771C138.873 122.598 135.05 124.403 130.924 124.805L147.774 141.656L141.764 147.666L124.846 130.747C124.484 134.947 122.644 138.827 119.771 141.692L112.188 112.188Z" fill="#A8947F"/>
<path id="Vector_6" d="M122 88.5L148.224 73C148.23 76.9915 146.803 80.9718 144.17 84.1736L168 84.1735L168 92.6729L144.074 92.6729C146.788 95.899 148.23 99.9427 148.224 104L122 88.5Z" fill="#A8947F"/>
<path id="Vector_7" d="M112.188 64.8119L119.771 35.3084C122.598 38.1267 124.403 41.95 124.805 46.0763L141.656 29.2257L147.666 35.2356L130.747 52.154C134.947 52.5163 138.827 54.3556 141.692 57.2287L112.188 64.8119Z" fill="#A8947F"/>
<path id="VectorN" d="M88.5 55L73 28.7757C76.9915 28.7699 80.9718 30.1967 84.1736 32.8303L84.1735 9.00001H92.6729V32.9261C95.899 30.2124 99.9427 28.77 104 28.7757L88.5 55Z" fill="#A8947F"/>
<path id="Polygon 1" d="M88.5 69L92.7219 76.3125L105.387 98.25H71.6125L88.5 69Z" fill="#758970"/>
</g>
</svg>
