<svg width="177" height="177" viewBox="0 0 177 177" fill="none" xmlns="http://www.w3.org/2000/svg">
<g id="details">
<path id="Vector" d="M58.448 58.448L28.9445 50.8648C31.7628 48.0382 35.5861 46.2326 39.7124 45.8309L22.8618 28.9804L28.8718 22.9704L45.7901 39.8887C46.1524 35.6887 47.9917 31.8094 50.8648 28.9445L58.448 58.448Z" fill="#A8947F"/>
<path id="Vector_2" d="M46 88.5L19.7757 104C19.7699 100.008 21.1967 96.0282 23.8303 92.8264L1.05774e-05 92.8265L1.0949e-05 84.3271L23.9261 84.3271C21.2124 81.101 19.77 77.0573 19.7757 73L46 88.5Z" fill="#A8947F"/>
<path id="Vector_3" d="M58.448 118.552L50.8647 148.056C48.0382 145.237 46.2326 141.414 45.8309 137.288L28.9803 154.138L22.9704 148.128L39.8887 131.21C35.6886 130.848 31.8093 129.008 28.9444 126.135L58.448 118.552Z" fill="#A8947F"/>
<path id="Vector_4" d="M88.5 131L104 157.224C100.008 157.23 96.0282 155.803 92.8264 153.17L92.8265 177H84.3271V153.074C81.101 155.788 77.0573 157.23 73 157.224L88.5 131Z" fill="#A8947F"/>
<path id="Vector_5" d="M118.552 118.552L148.056 126.135C145.237 128.962 141.414 130.767 137.288 131.169L154.138 148.02L148.128 154.03L131.21 137.111C130.848 141.311 129.008 145.191 126.135 148.056L118.552 118.552Z" fill="#A8947F"/>
<path id="Vector_6" d="M131 88.5L157.224 73C157.23 76.9915 155.803 80.9718 153.17 84.1736L177 84.1735L177 92.6729L153.074 92.6729C155.788 95.899 157.23 99.9427 157.224 104L131 88.5Z" fill="#A8947F"/>
<path id="Vector_7" d="M118.552 58.4479L126.135 28.9444C128.962 31.7628 130.767 35.5861 131.169 39.7123L148.02 22.8617L154.03 28.8717L137.111 45.79C141.311 46.1523 145.191 47.9917 148.056 50.8647L118.552 58.4479Z" fill="#A8947F"/>
<path id="VectorN" d="M88.5 46L73 19.7757C76.9915 19.7699 80.9718 21.1967 84.1736 23.8303L84.1735 1.14441e-05H92.6729V23.9261C95.899 21.2124 99.9427 19.77 104 19.7757L88.5 46Z" fill="#A8947F"/>
<path id="SpecialO" d="M79.5147 89C79.5147 84.3137 83.3137 80.5147 88 80.5147C92.6863 80.5147 96.4853 84.3137 96.4853 89C96.4853 93.6863 92.6863 97.4853 88 97.4853C83.3137 97.4853 79.5147 93.6863 79.5147 89Z" fill="#A8947F"/>
</g>
</svg>
