<svg width="164" height="179" viewBox="0 0 164 179" fill="none" xmlns="http://www.w3.org/2000/svg">
<g id="Personality">
<path id="specialBody2" d="M93.4731 109.552C93.4731 99.7705 88.1048 87.0547 82.7365 87.0547C76.8802 87.0547 72 100.26 72 109.552H93.4731Z" fill="#687D61"/>
<g id="Vector">
<path d="M91.7725 9.29235C91.7725 14.4244 87.6211 18.5847 82.5 18.5847C77.379 18.5847 73.2276 14.4244 73.2276 9.29235C73.2276 4.16033 77.379 0 82.5 0C87.6211 0 91.7725 4.16033 91.7725 9.29235Z" fill="#BD9159"/>
<path d="M93.2365 39.1257C93.2365 29.3443 87.8683 16.6284 82.5 16.6284C76.6437 16.6284 71.7635 29.8333 71.7635 39.1257H93.2365Z" fill="#BD9159"/>
</g>
<g id="Vector_2">
<path d="M139.237 36.2878C135.616 39.9167 129.745 39.9167 126.124 36.2878C122.503 32.6589 122.503 26.7753 126.124 23.1464C129.745 19.5175 135.616 19.5175 139.237 23.1464C142.858 26.7753 142.858 32.6589 139.237 36.2878Z" fill="#BD9159"/>
<path d="M143.503 58.6885C143.503 48.9071 138.135 36.1913 132.766 36.1913C126.91 36.1913 122.03 49.3962 122.03 58.6885H143.503Z" fill="#BD9159"/>
</g>
<g id="Vector_3">
<path d="M163.024 79.7186C163.024 84.8506 158.873 89.0109 153.751 89.0109C148.63 89.0109 144.479 84.8506 144.479 79.7186C144.479 74.5866 148.63 70.4262 153.751 70.4262C158.873 70.4262 163.024 74.5866 163.024 79.7186Z" fill="#BD9159"/>
<path d="M164 109.552C164 99.7705 158.632 87.0547 153.263 87.0547C147.407 87.0547 142.527 100.26 142.527 109.552H164Z" fill="#BD9159"/>
</g>
<g id="Vector_4">
<path d="M139.927 136.577C136.306 140.206 130.435 140.206 126.814 136.577C123.193 132.948 123.193 127.065 126.814 123.436C130.435 119.807 136.306 119.807 139.927 123.436C143.548 127.065 143.548 132.948 139.927 136.577Z" fill="#BD9159"/>
<path d="M144.479 158.459C144.479 148.678 139.111 135.962 133.743 135.962C127.886 135.962 123.006 149.167 123.006 158.459H144.479Z" fill="#BD9159"/>
</g>
<g id="Vector_5">
<path d="M91.7725 151.123C91.7725 156.255 87.621 160.415 82.5 160.415C77.379 160.415 73.2275 156.255 73.2275 151.123C73.2275 145.991 77.379 141.831 82.5 141.831C87.621 141.831 91.7725 145.991 91.7725 151.123Z" fill="#BD9159"/>
<path d="M92.7485 179C92.7485 169.219 87.3802 156.503 82.012 156.503C76.1557 156.503 71.2755 169.708 71.2755 179H92.7485Z" fill="#BD9159"/>
</g>
<g id="Vector_6">
<path d="M39.1622 136.577C35.5411 140.206 29.6701 140.206 26.049 136.577C22.4279 132.948 22.4279 127.065 26.049 123.436C29.6701 119.807 35.5411 119.807 39.1622 123.436C42.7834 127.065 42.7834 132.948 39.1622 136.577Z" fill="#BD9159"/>
<path d="M43.9461 158.459C43.9461 148.678 38.5778 135.962 33.2096 135.962C27.3533 135.962 22.4731 149.167 22.4731 158.459H43.9461Z" fill="#BD9159"/>
</g>
<path id="SpecialBody1" d="M21.4731 109.552C21.4731 99.7705 16.1048 87.0546 10.7365 87.0546C4.88024 87.0546 0 100.26 0 109.552H21.4731Z" fill="#BD9159"/>
<g id="Vector_7">
<path d="M39.8525 36.2877C36.2313 39.9166 30.3603 39.9166 26.7392 36.2877C23.1181 32.6588 23.1181 26.7752 26.7392 23.1463C30.3603 19.5175 36.2313 19.5175 39.8525 23.1463C43.4736 26.7752 43.4736 32.6588 39.8525 36.2877Z" fill="#BD9159"/>
<path d="M43.9461 58.6885C43.9461 48.9071 38.5778 36.1913 33.2096 36.1913C27.3533 36.1913 22.4731 49.3962 22.4731 58.6885H43.9461Z" fill="#BD9159"/>
</g>
<path id="SpecialHEadSecret" d="M1.83147 81.0815C1.83147 75.9729 5.97284 71.8315 11.0815 71.8315C16.1901 71.8315 20.3315 75.9728 20.3315 81.0815C20.3315 86.1901 16.1901 90.3315 11.0815 90.3315C5.97284 90.3315 1.83147 86.1901 1.83147 81.0815Z" fill="#BD9159"/>
<path id="SpecialHEad" d="M1.83147 81.0815C1.83147 75.9729 5.97284 71.8315 11.0815 71.8315C16.1901 71.8315 20.3315 75.9728 20.3315 81.0815C20.3315 86.1901 16.1901 90.3315 11.0815 90.3315C5.97284 90.3315 1.83147 86.1901 1.83147 81.0815Z" fill="#BD9159"/>
<path id="SpecialHEadSecret2" d="M73.8315 81.0815C73.8315 75.9729 77.9728 71.8315 83.0815 71.8315C88.1901 71.8315 92.3315 75.9728 92.3315 81.0815C92.3315 86.1901 88.1901 90.3315 83.0815 90.3315C77.9728 90.3315 73.8315 86.1901 73.8315 81.0815Z" fill="#BD9159"/>
<path id="SpecialHEad2" d="M82.9991 57.0008C83.9737 57.0809 87.6154 63.1036 91.0728 69.3978C94.3933 75.4428 97.5437 81.7383 97.9983 83.2605C98.2626 84.1458 67.9963 84.3423 68 83.2605C68.0067 81.3327 81.0886 56.8436 82.9991 57.0008Z" fill="#687D61"/>
</g>
</svg>
