<svg width="163" height="179" viewBox="0 0 163 179" fill="none" xmlns="http://www.w3.org/2000/svg">
<g id="PersonalityB">
<g id="Vector">
<path d="M90.2994 9.29235C90.2994 14.4244 86.148 18.5847 81.027 18.5847C75.9059 18.5847 71.7545 14.4244 71.7545 9.29235C71.7545 4.16033 75.9059 0 81.027 0C86.148 0 90.2994 4.16033 90.2994 9.29235Z" fill="#BD9159"/>
<path d="M91.7635 39.1257C91.7635 29.3443 86.3952 16.6284 81.027 16.6284C75.1707 16.6284 70.2904 29.8333 70.2904 39.1257H91.7635Z" fill="#BD9159"/>
</g>
<g id="Vector_2">
<path d="M137.764 36.2878C134.143 39.9167 128.272 39.9167 124.651 36.2878C121.03 32.6589 121.03 26.7753 124.651 23.1464C128.272 19.5175 134.143 19.5175 137.764 23.1464C141.385 26.7753 141.385 32.6589 137.764 36.2878Z" fill="#BD9159"/>
<path d="M142.03 58.6885C142.03 48.9071 136.662 36.1913 131.293 36.1913C125.437 36.1913 120.557 49.3962 120.557 58.6885H142.03Z" fill="#BD9159"/>
</g>
<g id="Vector_3">
<path d="M161.551 79.7186C161.551 84.8506 157.399 89.0109 152.278 89.0109C147.157 89.0109 143.006 84.8506 143.006 79.7186C143.006 74.5865 147.157 70.4262 152.278 70.4262C157.399 70.4262 161.551 74.5865 161.551 79.7186Z" fill="#BD9159"/>
<path d="M162.527 109.552C162.527 99.7705 157.159 87.0546 151.79 87.0546C145.934 87.0546 141.054 100.26 141.054 109.552H162.527Z" fill="#BD9159"/>
</g>
<g id="Vector_4">
<path d="M138.454 136.577C134.833 140.206 128.962 140.206 125.341 136.577C121.72 132.948 121.72 127.065 125.341 123.436C128.962 119.807 134.833 119.807 138.454 123.436C142.075 127.065 142.075 132.948 138.454 136.577Z" fill="#BD9159"/>
<path d="M143.006 158.459C143.006 148.678 137.638 135.962 132.269 135.962C126.413 135.962 121.533 149.167 121.533 158.459H143.006Z" fill="#BD9159"/>
</g>
<g id="Vector_5">
<path d="M90.2994 151.123C90.2994 156.255 86.148 160.415 81.0269 160.415C75.9059 160.415 71.7545 156.255 71.7545 151.123C71.7545 145.991 75.9059 141.831 81.0269 141.831C86.148 141.831 90.2994 145.991 90.2994 151.123Z" fill="#BD9159"/>
<path d="M91.2755 179C91.2755 169.219 85.9072 156.503 80.5389 156.503C74.6826 156.503 69.8024 169.708 69.8024 179H91.2755Z" fill="#BD9159"/>
</g>
<g id="Vector_6">
<path d="M37.6892 136.577C34.0681 140.206 28.1971 140.206 24.576 136.577C20.9548 132.948 20.9548 127.065 24.576 123.436C28.1971 119.807 34.0681 119.807 37.6892 123.436C41.3103 127.065 41.3103 132.948 37.6892 136.577Z" fill="#BD9159"/>
<path d="M42.4731 158.459C42.4731 148.678 37.1048 135.962 31.7365 135.962C25.8802 135.962 21 149.167 21 158.459H42.4731Z" fill="#BD9159"/>
</g>
<path id="specialBody" d="M91.2755 109.552C91.2755 99.7705 85.9072 87.0547 80.5389 87.0547C74.6826 87.0547 69.8024 100.26 69.8024 109.552H91.2755Z" fill="#687D61"/>
<g id="Vector_7">
<path d="M38.3794 36.2877C34.7583 39.9166 28.8873 39.9166 25.2662 36.2877C21.6451 32.6588 21.6451 26.7752 25.2662 23.1463C28.8873 19.5175 34.7583 19.5175 38.3794 23.1463C42.0005 26.7752 42.0005 32.6588 38.3794 36.2877Z" fill="#BD9159"/>
<path d="M42.4731 58.6885C42.4731 48.9071 37.1048 36.1913 31.7365 36.1913C25.8802 36.1913 21 49.3962 21 58.6885H42.4731Z" fill="#BD9159"/>
</g>
<path id="specialHead" d="M80.5389 59.6882C78.7984 59.8346 67.7195 81.2483 66.8743 84.1418C66.7533 84.5558 73.6463 84.808 80.5389 84.829C87.3723 84.8498 94.2053 84.6433 94.2036 84.1418C94.1975 82.3466 82.2795 59.5419 80.5389 59.6882Z" fill="#687D61"/>
</g>
</svg>
