<svg width="163" height="179" viewBox="0 0 163 179" fill="none" xmlns="http://www.w3.org/2000/svg">
<g id="Personality">
<path id="SpecialHEad" d="M20.497 79.7186C20.497 84.8506 16.3456 89.0109 11.2246 89.0109C6.10352 89.0109 1.9521 84.8506 1.9521 79.7186C1.9521 74.5866 6.10352 70.4262 11.2246 70.4262C16.3456 70.4262 20.497 74.5866 20.497 79.7186Z" fill="#BD9159"/>
<g id="Vector">
<path d="M90.7725 9.29235C90.7725 14.4244 86.6211 18.5847 81.5 18.5847C76.379 18.5847 72.2276 14.4244 72.2276 9.29235C72.2276 4.16033 76.379 0 81.5 0C86.6211 0 90.7725 4.16033 90.7725 9.29235Z" fill="#BD9159"/>
<path d="M92.2365 39.1257C92.2365 29.3443 86.8683 16.6284 81.5 16.6284C75.6437 16.6284 70.7635 29.8333 70.7635 39.1257H92.2365Z" fill="#BD9159"/>
</g>
<g id="Vector_2">
<path d="M138.237 36.2878C134.616 39.9167 128.745 39.9167 125.124 36.2878C121.503 32.6589 121.503 26.7753 125.124 23.1464C128.745 19.5175 134.616 19.5175 138.237 23.1464C141.858 26.7753 141.858 32.6589 138.237 36.2878Z" fill="#BD9159"/>
<path d="M142.503 58.6885C142.503 48.9071 137.135 36.1913 131.766 36.1913C125.91 36.1913 121.03 49.3962 121.03 58.6885H142.503Z" fill="#BD9159"/>
</g>
<g id="Vector_3">
<path d="M162.024 79.7186C162.024 84.8506 157.873 89.0109 152.751 89.0109C147.63 89.0109 143.479 84.8506 143.479 79.7186C143.479 74.5866 147.63 70.4262 152.751 70.4262C157.873 70.4262 162.024 74.5866 162.024 79.7186Z" fill="#BD9159"/>
<path d="M163 109.552C163 99.7705 157.632 87.0547 152.263 87.0547C146.407 87.0547 141.527 100.26 141.527 109.552H163Z" fill="#BD9159"/>
</g>
<g id="Vector_4">
<path d="M138.927 136.577C135.306 140.206 129.435 140.206 125.814 136.577C122.193 132.948 122.193 127.065 125.814 123.436C129.435 119.807 135.306 119.807 138.927 123.436C142.548 127.065 142.548 132.948 138.927 136.577Z" fill="#BD9159"/>
<path d="M143.479 158.459C143.479 148.678 138.111 135.962 132.743 135.962C126.886 135.962 122.006 149.167 122.006 158.459H143.479Z" fill="#BD9159"/>
</g>
<g id="Vector_5">
<path d="M90.7725 151.123C90.7725 156.255 86.621 160.415 81.5 160.415C76.379 160.415 72.2275 156.255 72.2275 151.123C72.2275 145.991 76.379 141.831 81.5 141.831C86.621 141.831 90.7725 145.991 90.7725 151.123Z" fill="#BD9159"/>
<path d="M91.7485 179C91.7485 169.219 86.3802 156.503 81.012 156.503C75.1557 156.503 70.2755 169.708 70.2755 179H91.7485Z" fill="#BD9159"/>
</g>
<g id="Vector_6">
<path d="M38.1622 136.577C34.5411 140.206 28.6701 140.206 25.049 136.577C21.4279 132.948 21.4279 127.065 25.049 123.436C28.6701 119.807 34.5411 119.807 38.1622 123.436C41.7834 127.065 41.7834 132.948 38.1622 136.577Z" fill="#BD9159"/>
<path d="M42.9461 158.459C42.9461 148.678 37.5778 135.962 32.2096 135.962C26.3533 135.962 21.4731 149.167 21.4731 158.459H42.9461Z" fill="#BD9159"/>
</g>
<path id="SpecialBody" d="M21.4731 109.552C21.4731 99.7705 16.1048 87.0546 10.7365 87.0546C4.88024 87.0546 0 100.26 0 109.552H21.4731Z" fill="#BD9159"/>
<g id="Vector_7">
<path d="M38.8525 36.2877C35.2313 39.9166 29.3603 39.9166 25.7392 36.2877C22.1181 32.6588 22.1181 26.7752 25.7392 23.1463C29.3603 19.5175 35.2313 19.5175 38.8525 23.1463C42.4736 26.7752 42.4736 32.6588 38.8525 36.2877Z" fill="#BD9159"/>
<path d="M42.9461 58.6885C42.9461 48.9071 37.5778 36.1913 32.2096 36.1913C26.3533 36.1913 21.4731 49.3962 21.4731 58.6885H42.9461Z" fill="#BD9159"/>
</g>
</g>
</svg>
