<svg width="97" height="113" viewBox="0 0 97 113" fill="none" xmlns="http://www.w3.org/2000/svg">
<g id="top1">
<path id="vector" d="M29.6725 69.5155C25.2278 61.8146 23.074 53.4177 23.0019 45.1166C22.9208 35.7877 25.4688 26.5797 30.3491 18.6166C34.633 26.0365 37.0349 30.1966 41.3188 37.6166C43.7989 41.9123 45.1894 44.3208 47.6696 48.6166C51.2771 54.865 53.2997 58.3682 56.9072 64.6166C60.5147 70.865 62.5373 74.3682 66.1448 80.6166C69.2471 85.9901 70.9865 89.0027 74.0889 94.3762C65.4819 94.604 56.949 92.5847 49.3696 88.5573C45.4023 86.4492 41.6963 83.7908 38.3776 80.6166C35.0418 77.4259 32.0974 73.7139 29.6725 69.5155Z" fill="#BD9159"/>
</g>
</svg>
