<svg width="97" height="113" viewBox="0 0 97 113" fill="none" xmlns="http://www.w3.org/2000/svg">
<g id="top2">
<path id="vector" d="M15.9999 54.5C12.4257 49.1385 6.00005 37.5 9.00003 32C13.1563 24.3801 7.99997 24.5 15.9999 19C23.9999 13.5 30.7905 21.3718 33.4999 29.5C35 34 45.4813 41.9297 46.4999 47.5C48.0238 55.8326 50.1816 56.7125 54.5 64C58.5395 70.817 54.8925 69.7516 58.5 76C61.6024 81.3735 66.4441 90.2597 58.5 93.8834C50.5559 97.5072 50.5591 88.4473 41.7248 83.9407C31.8933 78.9253 33.6626 72.3969 26.5 64C21.2263 57.8174 19.9999 60.5 15.9999 54.5Z" fill="#BD9159"/>
</g>
</svg>
