<svg width="97" height="113" viewBox="0 0 97 113" fill="none" xmlns="http://www.w3.org/2000/svg">
<g id="top2B">
<path id="vector" d="M29 19C36.4754 15.0623 43.3156 16.0417 47.6244 20.7034C50.6999 24.0309 53.173 29.039 55.3355 35C57.0898 39.8358 58.6397 45.2986 60.1409 51C61.1754 54.9291 62.1867 58.9715 63.226 63C66.2134 74.5807 69.4307 86.0465 74.0889 94.3762C70.0348 89.1244 64.2498 83.6103 57.9419 78C54.59 75.0188 51.0904 72.0105 47.6244 69C44.5496 66.3293 41.5012 63.6568 38.6058 61C32.8584 55.7263 27.7136 50.5143 24.1608 45.5C16.9715 35.3533 20.6509 23.3979 29 19Z" fill="#BD9159"/>
</g>
</svg>
