<svg width="97" height="113" viewBox="0 0 97 113" fill="none" xmlns="http://www.w3.org/2000/svg">
<g id="top3">
<path id="vector" d="M23.0002 52.6166C18.5556 44.9158 0.0723746 48.9177 0.000246367 40.6166C-0.0808116 31.2877 19.8598 20.6659 30.5007 22.1166C38.99 23.2739 53.8519 12.3006 59.5004 22.1166C63.4262 28.9389 55.1942 33.9807 57.0004 42.1166C58.564 49.1601 46.9375 45.9829 49.5 54C52.4033 63.0832 46.3653 59.591 49.5 65C53.0947 71.2027 58.107 75.7722 49.5 76C40.893 76.2278 45.0794 75.0275 37.5 71C33.5327 68.8919 30.3187 68.1743 27 65C23.6642 61.8093 25.4252 56.815 23.0002 52.6166Z" fill="#BD9159"/>
</g>
</svg>
