<svg width="97" height="113" viewBox="0 0 97 113" fill="none" xmlns="http://www.w3.org/2000/svg">
<g id="top4p">
<path id="Vector" d="M56.3226 56.5889C61.273 57.921 64.2148 63.0164 62.8933 67.9696C62.253 70.3695 60.7295 72.2956 58.7659 73.4923C56.6765 74.7656 54.0889 75.213 51.5369 74.5263C46.5865 73.1941 43.6447 68.0988 44.9662 63.1455C45.2588 62.0489 45.7358 61.0511 46.355 60.1767C41.0475 58.6806 33.7907 52.3211 30.0713 45.8789C30.0713 45.8789 35.7383 42.6071 39.3694 40.5106C43.0006 38.4142 48.6675 35.1424 48.6675 35.1424C52.2167 41.2897 54.4412 50.838 53.0331 56.3095C54.1074 56.2069 55.2184 56.2917 56.3226 56.5889Z" fill="#BD9159"/>
</g>
</svg>
