<svg width="97" height="113" viewBox="0 0 97 113" fill="none" xmlns="http://www.w3.org/2000/svg">
<g id="top4b">
<path id="vector" d="M6 24C3.89167 16.9721 20.2956 40.4811 27 37.5C34.9191 33.9788 0.999998 2.50004 10.5 9C20.9149 16.1259 29.8675 35.9648 34.5 33C47 25 23.5406 4.54961 26 2.50004C29 1.21742e-05 44.5 29.5 51.5 26C59.9292 21.7854 64.0001 38.5263 55 41C49.5917 42.4866 48.107 52.2723 39.5 52.5001C30.893 52.7279 34.8301 54.8255 28 59.5001C22.886 63.0001 3.21606 51.9111 11.5 48.5001C28.5 41.5001 8.99995 34 6 24Z" fill="#BD9159"/>
</g>
</svg>
