<svg width="97" height="113" viewBox="0 0 97 113" fill="none" xmlns="http://www.w3.org/2000/svg">
<g id="top4">
<path id="vector" d="M16 43.3116C19 38.8116 19 45.3116 23.5 38.8116C28 32.3116 24.8592 30.9774 35.5001 32.4281C43.9894 33.5855 43.0001 26.3115 49 26.8115C55 27.3115 58.5001 23.195 60.0001 29.8116C61.5 36.4281 65.0001 35.8116 61.0001 38.8116C53.3713 44.5331 56.0001 38.3116 52.0001 43.3116C47.5216 48.9097 41.107 52.0838 32.5 52.3116C23.893 52.5394 26.5794 60.339 19 56.3116C15.0327 54.2035 10 56.8116 10 52.3116C9.99998 47.8116 13.0001 47.8116 16 43.3116Z" fill="#BD9159"/>
</g>
</svg>
